<!-- https://materialdesignicons.com/ -->

<svg xmlns="http://www.w3.org/2000/svg">
    <defs>

        <!-- the plus icon -->
        <symbol id="plus" viewBox="0 0 24 24">
            <path d="M416 208H272V64c0-17.67-14.33-32-32-32h-32c-17.67 0-32 14.33-32 32v144H32c-17.67 0-32 14.33-32 32v32c0 17.67 14.33 32 32 32h144v144c0 17.67 14.33 32 32 32h32c17.67 0 32-14.33 32-32V304h144c17.67 0 32-14.33 32-32v-32c0-17.67-14.33-32-32-32z"></path>
        </symbol>

        <!-- the cross icon -->
        <symbol id="cross" viewBox="0 0 500 500">
            <path d="M242.72 256l100.07-100.07c12.28-12.28 12.28-32.19 0-44.48l-22.24-22.24c-12.28-12.28-32.19-12.28-44.48 0L176 189.28 75.93 89.21c-12.28-12.28-32.19-12.28-44.48 0L9.21 111.45c-12.28 12.28-12.28 32.19 0 44.48L109.28 256 9.21 356.07c-12.28 12.28-12.28 32.19 0 44.48l22.24 22.24c12.28 12.28 32.2 12.28 44.48 0L176 322.72l100.07 100.07c12.28 12.28 32.2 12.28 44.48 0l22.24-22.24c12.28-12.28 12.28-32.19 0-44.48L242.72 256z"></path>
        </symbol>

        <symbol id="user" viewBox="0 0 24 24">
            <path d="M12,19.2C9.5,19.2 7.29,17.92 6,16C6.03,14 10,12.9 12,12.9C14,12.9 17.97,14 18,16C16.71,17.92 14.5,19.2 12,19.2M12,5A3,3 0 0,1 15,8A3,3 0 0,1 12,11A3,3 0 0,1 9,8A3,3 0 0,1 12,5M12,2A10,10 0 0,0 2,12A10,10 0 0,0 12,22A10,10 0 0,0 22,12C22,6.47 17.5,2 12,2Z" />
        </symbol>

        <symbol id="alert" viewBox="0 0 24 24">
            <path d="M13 14H11V9H13M13 18H11V16H13M1 21H23L12 2L1 21Z" />
        </symbol>

        <symbol id="month" viewBox="0 0 24 24">
            <path d="M9,10V12H7V10H9M13,10V12H11V10H13M17,10V12H15V10H17M19,3A2,2 0 0,1 21,5V19A2,2 0 0,1 19,21H5C3.89,21 3,20.1 3,19V5A2,2 0 0,1 5,3H6V1H8V3H16V1H18V3H19M19,19V8H5V19H19M9,14V16H7V14H9M13,14V16H11V14H13M17,14V16H15V14H17Z" />
        </symbol>

        <symbol id="twitter" viewBox="0 0 100 100">
            <path d="M100.001,17.942c-3.681,1.688-7.633,2.826-11.783,3.339	c4.236-2.624,7.49-6.779,9.021-11.73c-3.965,2.432-8.354,4.193-13.026,5.146C80.47,10.575,75.138,8,69.234,8	c-11.33,0-20.518,9.494-20.518,21.205c0,1.662,0.183,3.281,0.533,4.833c-17.052-0.884-32.168-9.326-42.288-22.155	c-1.767,3.133-2.778,6.773-2.778,10.659c0,7.357,3.622,13.849,9.127,17.65c-3.363-0.109-6.525-1.064-9.293-2.651	c-0.002,0.089-0.002,0.178-0.002,0.268c0,10.272,7.072,18.845,16.458,20.793c-1.721,0.484-3.534,0.744-5.405,0.744	c-1.322,0-2.606-0.134-3.859-0.379c2.609,8.424,10.187,14.555,19.166,14.726c-7.021,5.688-15.867,9.077-25.48,9.077	c-1.656,0-3.289-0.102-4.895-0.297C9.08,88.491,19.865,92,31.449,92c37.737,0,58.374-32.312,58.374-60.336	c0-0.92-0.02-1.834-0.059-2.743C93.771,25.929,97.251,22.195,100.001,17.942L100.001,17.942z"></path>
        </symbol>

        <symbol id="arrow-left" viewBox="0 0 24 24">
            <path d="M6 8C6 5.79 7.79 4 10 4S14 5.79 14 8 12.21 12 10 12 6 10.21 6 8M10 14C5.58 14 2 15.79 2 18V20H13.09C13.04 19.67 13 19.34 13 19C13 17.36 13.66 15.87 14.74 14.78C13.41 14.29 11.78 14 10 14M18 18V16L15 19L18 22V20H22V18H18Z" />
        </symbol>

        <symbol id="test" viewBox="0 0 24 24">
            <path d="M9,5A4,4 0 0,1 13,9A4,4 0 0,1 9,13A4,4 0 0,1 5,9A4,4 0 0,1 9,5M9,15C11.67,15 17,16.34 17,19V21H1V19C1,16.34 6.33,15 9,15M16.76,5.36C18.78,7.56 18.78,10.61 16.76,12.63L15.08,10.94C15.92,9.76 15.92,8.23 15.08,7.05L16.76,5.36M20.07,2C24,6.05 23.97,12.11 20.07,16L18.44,14.37C21.21,11.19 21.21,6.65 18.44,3.63L20.07,2Z" />
        </symbol>

        <symbol id="cog" viewBox="0 0 24 24">
            <path d="M12,8A4,4 0 0,1 16,12A4,4 0 0,1 12,16A4,4 0 0,1 8,12A4,4 0 0,1 12,8M12,10A2,2 0 0,0 10,12A2,2 0 0,0 12,14A2,2 0 0,0 14,12A2,2 0 0,0 12,10M10,22C9.75,22 9.54,21.82 9.5,21.58L9.13,18.93C8.5,18.68 7.96,18.34 7.44,17.94L4.95,18.95C4.73,19.03 4.46,18.95 4.34,18.73L2.34,15.27C2.21,15.05 2.27,14.78 2.46,14.63L4.57,12.97L4.5,12L4.57,11L2.46,9.37C2.27,9.22 2.21,8.95 2.34,8.73L4.34,5.27C4.46,5.05 4.73,4.96 4.95,5.05L7.44,6.05C7.96,5.66 8.5,5.32 9.13,5.07L9.5,2.42C9.54,2.18 9.75,2 10,2H14C14.25,2 14.46,2.18 14.5,2.42L14.87,5.07C15.5,5.32 16.04,5.66 16.56,6.05L19.05,5.05C19.27,4.96 19.54,5.05 19.66,5.27L21.66,8.73C21.79,8.95 21.73,9.22 21.54,9.37L19.43,11L19.5,12L19.43,13L21.54,14.63C21.73,14.78 21.79,15.05 21.66,15.27L19.66,18.73C19.54,18.95 19.27,19.04 19.05,18.95L16.56,17.95C16.04,18.34 15.5,18.68 14.87,18.93L14.5,21.58C14.46,21.82 14.25,22 14,22H10M11.25,4L10.88,6.61C9.68,6.86 8.62,7.5 7.85,8.39L5.44,7.35L4.69,8.65L6.8,10.2C6.4,11.37 6.4,12.64 6.8,13.8L4.68,15.36L5.43,16.66L7.86,15.62C8.63,16.5 9.68,17.14 10.87,17.38L11.24,20H12.76L13.13,17.39C14.32,17.14 15.37,16.5 16.14,15.62L18.57,16.66L19.32,15.36L17.2,13.81C17.6,12.64 17.6,11.37 17.2,10.2L19.31,8.65L18.56,7.35L16.15,8.39C15.38,7.5 14.32,6.86 13.12,6.62L12.75,4H11.25Z" />
        </symbol>

        <symbol id="email" viewBox="0 0 24 24">
            <path d="M12,15C12.81,15 13.5,14.7 14.11,14.11C14.7,13.5 15,12.81 15,12C15,11.19 14.7,10.5 14.11,9.89C13.5,9.3 12.81,9 12,9C11.19,9 10.5,9.3 9.89,9.89C9.3,10.5 9,11.19 9,12C9,12.81 9.3,13.5 9.89,14.11C10.5,14.7 11.19,15 12,15M12,2C14.75,2 17.1,3 19.05,4.95C21,6.9 22,9.25 22,12V13.45C22,14.45 21.65,15.3 21,16C20.3,16.67 19.5,17 18.5,17C17.3,17 16.31,16.5 15.56,15.5C14.56,16.5 13.38,17 12,17C10.63,17 9.45,16.5 8.46,15.54C7.5,14.55 7,13.38 7,12C7,10.63 7.5,9.45 8.46,8.46C9.45,7.5 10.63,7 12,7C13.38,7 14.55,7.5 15.54,8.46C16.5,9.45 17,10.63 17,12V13.45C17,13.86 17.16,14.22 17.46,14.53C17.76,14.84 18.11,15 18.5,15C18.92,15 19.27,14.84 19.57,14.53C19.87,14.22 20,13.86 20,13.45V12C20,9.81 19.23,7.93 17.65,6.35C16.07,4.77 14.19,4 12,4C9.81,4 7.93,4.77 6.35,6.35C4.77,7.93 4,9.81 4,12C4,14.19 4.77,16.07 6.35,17.65C7.93,19.23 9.81,20 12,20H17V22H12C9.25,22 6.9,21 4.95,19.05C3,17.1 2,14.75 2,12C2,9.25 3,6.9 4.95,4.95C6.9,3 9.25,2 12,2Z" />
        </symbol>

        <symbol id="git" viewBox="0 0 24 24">
            <path fill="currentColor" d="M12,2A10,10 0 0,0 2,12C2,16.42 4.87,20.17 8.84,21.5C9.34,21.58 9.5,21.27 9.5,21C9.5,20.77 9.5,20.14 9.5,19.31C6.73,19.91 6.14,17.97 6.14,17.97C5.68,16.81 5.03,16.5 5.03,16.5C4.12,15.88 5.1,15.9 5.1,15.9C6.1,15.97 6.63,16.93 6.63,16.93C7.5,18.45 8.97,18 9.54,17.76C9.63,17.11 9.89,16.67 10.17,16.42C7.95,16.17 5.62,15.31 5.62,11.5C5.62,10.39 6,9.5 6.65,8.79C6.55,8.54 6.2,7.5 6.75,6.15C6.75,6.15 7.59,5.88 9.5,7.17C10.29,6.95 11.15,6.84 12,6.84C12.85,6.84 13.71,6.95 14.5,7.17C16.41,5.88 17.25,6.15 17.25,6.15C17.8,7.5 17.45,8.54 17.35,8.79C18,9.5 18.38,10.39 18.38,11.5C18.38,15.32 16.04,16.16 13.81,16.41C14.17,16.72 14.5,17.33 14.5,18.26C14.5,19.6 14.5,20.68 14.5,21C14.5,21.27 14.66,21.59 15.17,21.5C19.14,20.16 22,16.42 22,12A10,10 0 0,0 12,2Z" />
        </symbol>

        <symbol id="npm" viewBox="0 0 24 24">
            <path fill="currentColor" d="M4,10V14H6V11H7V14H8V10H4M9,10V15H11V14H13V10H9M12,11V13H11V11H12M14,10V14H16V11H17V14H18V11H19V14H20V10H14M3,9H21V15H12V16H8V15H3V9Z" />
        </symbol>

        <symbol id="open" viewBox="0 0 24 24">
            <path fill="currentColor" d="M6.1,10L4,18V8H21A2,2 0 0,0 19,6H12L10,4H4A2,2 0 0,0 2,6V18A2,2 0 0,0 4,20H19C19.9,20 20.7,19.4 20.9,18.5L23.2,10H6.1M19,18H6L7.6,12H20.6L19,18Z" />
        </symbol>

        <symbol id="phone" viewBox="0 0 24 24">
            <path fill="currentColor" d="M6.62,10.79C8.06,13.62 10.38,15.94 13.21,17.38L15.41,15.18C15.69,14.9 16.08,14.82 16.43,14.93C17.55,15.3 18.75,15.5 20,15.5A1,1 0 0,1 21,16.5V20A1,1 0 0,1 20,21A17,17 0 0,1 3,4A1,1 0 0,1 4,3H7.5A1,1 0 0,1 8.5,4C8.5,5.25 8.7,6.45 9.07,7.57C9.18,7.92 9.1,8.31 8.82,8.59L6.62,10.79Z" />
        </symbol>

        <symbol id="js" viewBox="0 0 24 24">
            <path fill="currentColor" d="M3,3H21V21H3V3M7.73,18.04C8.13,18.89 8.92,19.59 10.27,19.59C11.77,19.59 12.8,18.79 12.8,17.04V11.26H11.1V17C11.1,17.86 10.75,18.08 10.2,18.08C9.62,18.08 9.38,17.68 9.11,17.21L7.73,18.04M13.71,17.86C14.21,18.84 15.22,19.59 16.8,19.59C18.4,19.59 19.6,18.76 19.6,17.23C19.6,15.82 18.79,15.19 17.35,14.57L16.93,14.39C16.2,14.08 15.89,13.87 15.89,13.37C15.89,12.96 16.2,12.64 16.7,12.64C17.18,12.64 17.5,12.85 17.79,13.37L19.1,12.5C18.55,11.54 17.77,11.17 16.7,11.17C15.19,11.17 14.22,12.13 14.22,13.4C14.22,14.78 15.03,15.43 16.25,15.95L16.67,16.13C17.45,16.47 17.91,16.68 17.91,17.26C17.91,17.74 17.46,18.09 16.76,18.09C15.93,18.09 15.45,17.66 15.09,17.06L13.71,17.86Z" />
        </symbol>

        <symbol id="db" viewBox="0 0 24 24">
            <path fill="currentColor" d="M12 16C12.8 16 13.57 15.93 14.31 15.82L17.22 12.91C15.89 13.59 14 14 12 14C9.58 14 7.3 13.4 6 12.45V9.64C7.47 10.47 9.61 11 12 11S16.53 10.47 18 9.64V12.13L19.39 10.74C19.57 10.56 19.78 10.42 20 10.3V7C20 4.79 16.42 3 12 3S4 4.79 4 7V17C4 19.04 7.06 20.72 11 20.97V19.13L11.17 18.96C7.84 18.76 6 17.46 6 17V14.77C7.61 15.55 9.72 16 12 16M12 5C15.87 5 18 6.5 18 7S15.87 9 12 9 6 7.5 6 7 8.13 5 12 5M19.13 13.83L21.17 15.87L15.04 22H13V19.96L19.13 13.83M22.85 14.19L21.87 15.17L19.83 13.13L20.81 12.15C21 11.95 21.33 11.95 21.53 12.15L22.85 13.47C23.05 13.67 23.05 14 22.85 14.19Z" />
        </symbol>

        <symbol id="msg" viewBox="0 0 24 24">
            <path fill="currentColor" d="M20 2H4C2.9 2 2 2.9 2 4V22L6 18H20C21.1 18 22 17.1 22 16V4C22 2.9 21.1 2 20 2M20 16H5.2L4 17.2V4H20V16Z" />
        </symbol>

    </defs>
</svg>